<svg width='200' height='200' fill="#000000" xmlns="http://www.w3.org/2000/svg" xmlns:xlink="http://www.w3.org/1999/xlink" version="1.1" x="0px" y="0px" viewBox="0 0 100 100" enable-background="new 0 0 100 100" xml:space="preserve"><g><path d="M17.429,29.594c0.235,0.256,0.567,0.401,0.914,0.401h4.125c0.395,0,0.6-0.469,0.333-0.76l-0.416-0.452   c-0.235-0.256-0.567-0.401-0.914-0.401h-4.125c-0.395,0-0.6,0.469-0.333,0.76L17.429,29.594z"/><path d="M94.351,29.255c-0.006,0-0.013,0-0.019,0l-24.655,0.636l1.594,1.57h-7.965v-0.591c0-0.44-0.175-0.863-0.486-1.174   l-3.173-3.173c-0.373-0.373-0.879-0.583-1.407-0.583H6.185C5.53,25.941,5,26.471,5,27.125v2.494c0,0.676,0.274,1.324,0.76,1.794   l4.724,4.578c0.337,0.326,0.731,0.587,1.163,0.77l13.707,5.792c5.786,2.445,5.596,10.709-0.296,12.886l-5.698,2.105   c-0.277,0.102-0.461,0.366-0.461,0.662v1.899c0,0.421,0.137,0.83,0.391,1.166l9.192,12.167c0.296,0.392,0.759,0.622,1.248,0.622   c0.023,0,0.046-0.001,0.07-0.002l4.888-0.217v0c3.338-3.515,7.919-5.412,12.605-5.412c1.881,0,3.78,0.306,5.621,0.936l9.491,3.246   l3.521-0.156c0.377-0.017,0.668-0.337,0.65-0.714l-0.155-3.162c-0.023-0.468-0.183-0.919-0.461-1.297l-7.304-9.932   c-3.306-4.496-1.191-10.914,4.142-12.557c7.259-2.237,16.139-5.137,20.083-7.07c2.644-1.296,8.726-5.236,11.825-7.274   C95.247,30.092,94.99,29.255,94.351,29.255z M7.064,27.572h51.175c0.096,0,0.185,0.037,0.253,0.105l3.173,3.173   c0.006,0.006,0.009,0.013,0.009,0.021v0.042H11.128L7.064,27.572z M26.109,66.273l-5.543-7.435l1.54-0.569l4.89,6.558   C26.651,65.465,26.331,65.956,26.109,66.273z M28.281,61.763c-0.157,0.518-0.334,1.004-0.52,1.455L23.647,57.7l1.54-0.569   l3.196,4.286C28.35,61.531,28.316,61.646,28.281,61.763z M28.871,59.437l-2.191-2.938c0.472-0.247,0.915-0.533,1.326-0.857   l1.21,1.623C29.162,57.773,29.059,58.522,28.871,59.437z M51.455,67.263c-0.518-0.117-1.041-0.212-1.567-0.285V57.84   c-0.515-0.161-1.041-0.279-1.575-0.353v9.339c-0.339-0.019-0.679-0.028-1.02-0.028c-0.185,0-0.37,0.005-0.555,0.011v-9.41   c-0.525,0.011-1.052,0.064-1.575,0.157v9.365c-0.529,0.06-1.055,0.142-1.575,0.247v-9.201c-0.55,0.192-1.076,0.43-1.575,0.708v8.88   c-0.533,0.155-1.058,0.333-1.575,0.534v-8.325c-0.587,0.497-1.117,1.06-1.575,1.684v7.332c-0.538,0.266-1.063,0.559-1.575,0.875   v-5.01l-1.575,4.792v0.867l-1.828-0.043L36,63.823c1.28-3.895,4.437-6.741,8.443-7.613c2.416-0.526,4.849-0.269,7.012,0.679V67.263   z M82.163,36.257c-3.028,1.484-9.678,3.83-19.248,6.791c1.899-1.553,4.214-2.608,6.419-3.418c1.139-0.419,2.333-0.792,3.596-1.188   c3.034-0.95,8.989-3.312,11.715-5.015l-11.507,3.784c-0.232,0.073-0.465,0.146-0.696,0.219c-1.283,0.402-2.494,0.781-3.671,1.213   c-3.244,1.191-5.673,2.431-8.045,5.236c-2.263,1.152-3.968,3.128-4.787,5.609c-1.002,3.036-0.491,6.254,1.403,8.829l7.161,9.738   l-1.051,0.294l-1.371-0.721c-0.335-0.701-1.83-3.798-2.563-4.756c-0.801-1.045-3.463-3.755-3.566-3.859   c-3.004-3.249-7.378-4.627-11.701-3.686c-4.323,0.941-7.729,4.012-9.111,8.215l-2.093,6.367H29.47l4.181-10.759   c1.912-4.92,0.537-10.406-3.228-13.859c-0.032-0.068-0.067-0.135-0.101-0.202h25.641c0.509-0.527,1.02-1.044,1.522-1.575H29.309   c-0.491-0.599-1.064-1.128-1.708-1.575h31.284c0.31-0.378,0.612-0.771,0.903-1.186c0.091-0.131,0.179-0.26,0.265-0.389H24.361   l-3.728-1.575h40.383c0.308-0.554,0.567-1.081,0.784-1.575H16.906l-3.728-1.575H62.4c0.196-0.611,0.322-1.141,0.402-1.575H11.128   v-1.575h50.546v0.606h1.631h7.965h3.982l-1.695-1.669l17.351-0.448C86.788,33.634,83.675,35.516,82.163,36.257z"/><path d="M65.246,29.19c0.203,0,0.395,0.079,0.539,0.223l0.961,0.961h2.307l-2.114-2.114c-0.452-0.452-1.053-0.701-1.692-0.701   h-3.054l1.631,1.631H65.246z"/></g></svg>